<svg fill="none" xmlns="http://www.w3.org/2000/svg" viewBox="0 0 1001 406"><g opacity=".3"><path fill-rule="evenodd" clip-rule="evenodd" d="M68.6453 79.8201H58.1851V74.9391H68.6453V79.8201ZM130.919 34.6688H120.459V29.7877H130.919V34.6688ZM11.835 17.5801H1.37482V12.6991H11.835V17.5801ZM444.042 68.3883 451.439 60.9918 447.987 57.5404 440.591 64.9369 444.042 68.3883ZM327.194 79.8201H316.734V74.9391H327.194V79.8201ZM181.195 308.427 191.656 308.427 191.656 313.308 181.195 313.308 181.195 308.427ZM439.744 308.427 450.204 308.427 450.204 313.308 439.744 313.308 439.744 308.427ZM191.496 163.945 191.496 153.485 196.377 153.485 196.377 163.945 191.496 163.945ZM450.044 163.945 450.044 153.485 454.925 153.485 454.925 163.945 450.044 163.945ZM58.3451 224.302 58.3451 234.762 53.4641 234.762 53.4641 224.302 58.3451 224.302ZM316.894 224.302 316.894 234.762 312.013 234.762 312.013 224.302 316.894 224.302ZM34.3186 111.961 34.3186 101.5 29.4376 101.5 29.4376 111.961 34.3186 111.961ZM491.041 66.8417 483.645 59.4452 487.096 55.9938 494.493 63.3902 491.041 66.8417ZM293.792 111.961 293.792 101.5 288.911 101.5 288.911 111.961 293.792 111.961ZM215.523 276.287 215.523 286.747 220.404 286.747 220.404 276.287 215.523 276.287ZM219.835 373.108 219.835 383.568 224.716 383.568 224.716 373.108 219.835 373.108ZM273.181 15.1393 273.181 25.5995 278.062 25.5995 278.062 15.1393 273.181 15.1393ZM474.071 276.287 474.071 286.747 478.952 286.747 478.952 276.287 474.071 276.287ZM159.356 129.619 169.816 129.619 169.816 124.738 159.356 124.738 159.356 129.619ZM417.904 129.619 428.365 129.619 428.365 124.738 417.904 124.738 417.904 129.619ZM90.4849 258.629 80.0247 258.629 80.0247 263.51 90.4849 263.51 90.4849 258.629ZM74.7628 336.766 64.3027 336.766 64.3027 341.647 74.7628 341.647 74.7628 336.766ZM357.538 346.846 347.077 346.846 347.077 351.727 357.538 351.727 357.538 346.846ZM349.033 258.629 338.573 258.629 338.573 263.51 349.033 263.51 349.033 258.629Z" fill="#21C090"/><path fill-rule="evenodd" clip-rule="evenodd" d="M74.325 17.5802 88.5294 17.5801 88.5293 12.6991 69.4439 12.6992V23.6285H57.6414V35.924H46.3217V54.2713H51.2028V40.8051H62.5225V28.5096H74.325V17.5802ZM396.016 28.3933 385.972 38.4372 382.52 34.9858 396.016 21.4904 403.744 29.2186 412.089 20.873 420.784 29.5673 428.788 21.563 441.761 34.5365 438.31 37.9879 428.788 28.4658 420.784 36.4701 412.089 27.7758 403.744 36.1215 396.016 28.3933ZM332.873 17.5802 347.077 17.5801 347.077 12.6991 327.992 12.6992V23.6285H316.189V35.924H304.87V54.2713H309.751V40.8051H321.07V28.5096H332.873V17.5802ZM175.516 370.667 161.312 370.667 161.312 375.548 180.397 375.548 180.397 364.619 192.2 364.619 192.2 352.323 203.52 352.323 203.52 333.976 198.639 333.976 198.639 347.442 187.319 347.442 187.319 359.738 175.516 359.738 175.516 370.667ZM227.498 24.1342 237.542 34.1782 240.993 30.7268 227.498 17.2314 219.769 24.9596 211.424 16.614 202.729 25.3082 194.725 17.304 181.752 30.2775 185.203 33.7289 194.725 24.2068 202.729 32.2111 211.424 23.5168 219.769 31.8624 227.498 24.1342ZM281.757 375.37 271.713 365.326 268.262 368.778 281.757 382.273 289.485 374.545 297.831 382.891 306.525 374.196 314.53 382.201 327.503 369.227 324.052 365.776 314.53 375.298 306.525 367.294 297.831 375.988 289.485 367.642 281.757 375.37ZM434.065 370.667 419.86 370.667 419.86 375.548 438.946 375.548 438.946 364.619 450.748 364.619 450.748 352.323 462.068 352.323 462.068 333.976 457.187 333.976 457.187 347.442 445.867 347.442 445.867 359.738 434.065 359.738 434.065 370.667ZM100.225 369.088 110.269 379.132 113.721 375.68 100.225 362.185 92.497 369.913 84.1514 361.568 75.4572 370.262 67.4529 362.258 54.4794 375.231 57.9308 378.683 67.4529 369.16 75.4572 377.165 84.1514 368.47 92.497 376.816 100.225 369.088ZM181.712 96.6862 181.712 110.891 186.593 110.891 186.593 91.8052 175.663 91.8052 175.663 80.0027 163.368 80.0027 163.368 68.683 145.02 68.683 145.02 73.564 158.487 73.564 158.487 84.8837 170.782 84.8837 170.782 96.6862 181.712 96.6862ZM440.26 96.6862 440.26 110.891 445.141 110.891 445.141 91.8052 434.212 91.8052 434.212 80.0027 421.916 80.0027 421.916 68.683 403.569 68.683 403.569 73.564 417.035 73.564 417.035 84.8837 429.331 84.8837 429.331 96.6862 440.26 96.6862ZM68.1297 291.561 68.1296 277.357 63.2486 277.357 63.2487 296.442 74.178 296.442 74.178 308.245 86.4735 308.245 86.4735 319.564 104.821 319.564 104.821 314.683 91.3546 314.683 91.3546 303.364 79.0591 303.364 79.0591 291.561 68.1297 291.561ZM326.678 291.561 326.678 277.357 321.797 277.357 321.797 296.442 332.727 296.442 332.727 308.245 345.022 308.245 345.022 319.564 363.369 319.564 363.369 314.683 349.903 314.683 349.903 303.364 337.608 303.364 337.608 291.561 326.678 291.561ZM53.7642 155.1 53.7643 140.896 58.6453 140.896 58.6453 159.981 47.7159 159.981 47.7159 171.783 35.4204 171.783 35.4204 183.103 17.0731 183.103 17.0731 178.222 30.5393 178.222 30.5393 166.902 42.8349 166.902 42.8349 155.1 53.7642 155.1ZM312.313 146.732 312.313 132.528 317.194 132.528 317.194 151.613 306.264 151.613 306.264 163.416 293.969 163.416 293.969 174.735 275.622 174.735 275.622 169.854 289.088 169.854 289.088 158.534 301.383 158.534 301.383 146.732 312.313 146.732ZM196.076 241.515 196.076 255.72 191.195 255.72 191.195 236.634 202.125 236.634 202.125 224.832 214.42 224.832 214.42 213.512 232.768 213.512 232.768 218.393 219.301 218.393 219.301 229.713 207.006 229.713 207.006 241.515 196.076 241.515ZM454.925 229.949 454.925 244.154 450.044 244.154 450.044 225.068 460.974 225.068 460.974 213.266 473.269 213.266 473.269 201.946 491.616 201.946 491.616 206.827 478.15 206.827 478.15 218.147 465.855 218.147 465.855 229.949 454.925 229.949Z" fill="#009FFF"/><path fill-rule="evenodd" clip-rule="evenodd" d="M99.0216 56.7122C94.5746 56.7122 90.9696 60.3172 90.9696 64.7642H86.0886C86.0886 57.6215 91.8789 51.8312 99.0216 51.8312 106.164 51.8312 111.955 57.6215 111.955 64.7642H107.074C107.074 60.3172 103.469 56.7122 99.0216 56.7122ZM357.57 56.7122C353.123 56.7122 349.518 60.3172 349.518 64.7642H344.637C344.637 57.6215 350.427 51.8312 357.57 51.8312 364.713 51.8312 370.503 57.6215 370.503 64.7642H365.622C365.622 60.3172 362.017 56.7122 357.57 56.7122ZM150.82 331.536C155.267 331.536 158.872 327.931 158.872 323.484L163.753 323.484C163.753 330.627 157.962 336.417 150.82 336.417 143.677 336.417 137.887 330.627 137.887 323.484L142.768 323.484C142.768 327.931 146.373 331.536 150.82 331.536ZM217.291 69.2677C214.146 66.1232 209.048 66.1232 205.903 69.2677L202.452 65.8163C207.503 60.7656 215.691 60.7656 220.742 65.8163 225.793 70.867 225.793 79.0557 220.742 84.1064L217.291 80.655C220.435 77.5105 220.435 72.4122 217.291 69.2677ZM291.964 330.237C295.108 333.381 300.206 333.381 303.351 330.237L306.802 333.688C301.752 338.739 293.563 338.739 288.512 333.688 283.461 328.638 283.461 320.449 288.512 315.398L291.964 318.85C288.819 321.994 288.819 327.092 291.964 330.237ZM409.368 331.536C413.815 331.536 417.42 327.931 417.42 323.484L422.301 323.484C422.301 330.627 416.511 336.417 409.368 336.417 402.226 336.417 396.435 330.627 396.435 323.484L401.316 323.484C401.316 327.931 404.921 331.536 409.368 331.536ZM28.0126 315.828C24.8681 312.683 19.7699 312.683 16.6254 315.828L13.174 312.376C18.2247 307.326 26.4134 307.326 31.4641 312.376 36.5147 317.427 36.5147 325.616 31.4641 330.666L28.0126 327.215C31.1571 324.071 31.1571 318.972 28.0126 315.828ZM230.327 163.978C230.327 159.531 226.722 155.926 222.275 155.926L222.275 151.045C229.418 151.045 235.208 156.835 235.208 163.978 235.208 171.121 229.418 176.911 222.275 176.911L222.275 172.03C226.722 172.03 230.327 168.425 230.327 163.978ZM14.6566 241.006C14.6566 236.559 11.0516 232.954 6.60463 232.954L6.60463 228.073C13.7473 228.073 19.5377 233.863 19.5377 241.006 19.5377 248.148 13.7473 253.939 6.60463 253.939L6.60463 249.058C11.0516 249.058 14.6566 245.453 14.6566 241.006ZM278.062 224.27C278.062 228.717 281.667 232.322 286.114 232.322L286.114 237.203C278.971 237.203 273.181 231.413 273.181 224.27 273.181 217.128 278.971 211.337 286.114 211.337L286.114 216.218C281.667 216.218 278.062 219.823 278.062 224.27ZM109.177 147.173C109.177 142.726 105.572 139.121 101.126 139.121L101.126 134.24C108.268 134.24 114.059 140.03 114.059 147.173 114.059 154.315 108.268 160.106 101.125 160.106L101.125 155.225C105.572 155.225 109.177 151.62 109.177 147.173ZM367.726 147.173C367.726 142.726 364.121 139.121 359.674 139.121L359.674 134.24C366.817 134.24 372.607 140.03 372.607 147.173 372.607 154.315 366.817 160.106 359.674 160.106L359.674 155.225C364.121 155.225 367.726 151.62 367.726 147.173ZM140.664 241.075C140.664 245.522 144.269 249.127 148.716 249.127L148.716 254.008C141.573 254.008 135.783 248.217 135.783 241.075 135.783 233.932 141.573 228.142 148.716 228.142L148.716 233.023C144.269 233.023 140.664 236.628 140.664 241.075ZM399.212 241.075C399.212 245.522 402.817 249.127 407.264 249.127L407.264 254.008C400.122 254.008 394.331 248.217 394.331 241.075 394.331 233.932 400.122 228.142 407.264 228.142L407.264 233.023C402.817 233.023 399.212 236.628 399.212 241.075ZM5.98669 96.2376C5.98669 91.7906 9.59169 88.1856 14.0387 88.1856L14.0387 83.3046C6.89597 83.3046 1.10565 89.0949 1.10565 96.2376 1.10565 103.38 6.89597 109.171 14.0387 109.171L14.0387 104.29C9.59169 104.29 5.98669 100.685 5.98669 96.2376ZM501.802 26.4491C498.657 23.3046 493.559 23.3046 490.415 26.4491L486.963 22.9977C492.014 17.947 500.203 17.947 505.253 22.9977 510.304 28.0484 510.304 36.2371 505.253 41.2878L501.802 37.8363C504.946 34.6919 504.946 29.5936 501.802 26.4491ZM503.914 364.488C506.138 368.339 511.062 369.659 514.914 367.435L517.354 371.662C511.168 375.234 503.259 373.114 499.687 366.928 496.116 360.743 498.235 352.833 504.421 349.262L506.862 353.489C503.01 355.712 501.691 360.637 503.914 364.488ZM256.697 91.0081C256.697 86.5611 260.302 82.9561 264.749 82.9561L264.749 78.0751C257.606 78.0751 251.816 83.8654 251.816 91.0081 251.816 98.1508 257.606 103.941 264.749 103.941L264.749 99.0601C260.302 99.0601 256.697 95.4551 256.697 91.0081ZM251.693 297.239C251.693 301.686 248.088 305.291 243.641 305.291L243.641 310.172C250.783 310.172 256.574 304.382 256.574 297.239 256.574 290.096 250.783 284.306 243.641 284.306L243.641 289.187C248.088 289.187 251.693 292.792 251.693 297.239ZM164.586 184.946C169.033 184.946 172.638 188.551 172.638 192.998L177.519 192.998C177.519 185.855 171.729 180.065 164.586 180.065 157.443 180.065 151.653 185.855 151.653 192.998L156.534 192.998C156.534 188.551 160.139 184.946 164.586 184.946ZM423.135 184.946C427.582 184.946 431.187 188.551 431.187 192.998L436.068 192.998C436.068 185.855 430.278 180.065 423.135 180.065 415.992 180.065 410.202 185.855 410.202 192.998L415.083 192.998C415.083 188.551 418.688 184.946 423.135 184.946ZM85.2551 203.303C80.8081 203.303 77.2031 199.698 77.2031 195.251L72.3221 195.251C72.3221 202.393 78.1124 208.184 85.2551 208.184 92.3978 208.184 98.1881 202.393 98.1881 195.251L93.3071 195.251C93.3071 199.698 89.7021 203.303 85.2551 203.303ZM343.804 203.303C339.357 203.303 335.752 199.698 335.752 195.251L330.871 195.251C330.871 202.393 336.661 208.184 343.804 208.184 350.946 208.184 356.737 202.393 356.737 195.251L351.856 195.251C351.856 199.698 348.251 203.303 343.804 203.303Z" fill="#21C090"/><path d="M17.0729 54.2789C17.0729 57.1719 14.7277 59.5172 11.8346 59.5172 8.94163 59.5172 6.59637 57.1719 6.59637 54.2789 6.59637 51.3859 8.94163 49.0406 11.8346 49.0406 14.7277 49.0406 17.0729 51.3859 17.0729 54.2789ZM463.332 16.6651C465.378 18.7108 468.694 18.7108 470.74 16.6651 472.786 14.6195 472.786 11.3028 470.74 9.25711 468.694 7.21144 465.378 7.21144 463.332 9.25711 461.286 11.3028 461.286 14.6195 463.332 16.6651ZM275.621 54.2789C275.621 57.1719 273.276 59.5172 270.383 59.5172 267.49 59.5172 265.145 57.1719 265.145 54.2789 265.145 51.3859 267.49 49.0406 270.383 49.0406 273.276 49.0406 275.621 51.3859 275.621 54.2789ZM232.768 333.968C232.768 331.075 235.113 328.73 238.006 328.73 240.899 328.73 243.244 331.075 243.244 333.968 243.244 336.861 240.899 339.207 238.006 339.207 235.113 339.207 232.768 336.861 232.768 333.968ZM161.931 19.7035C159.886 21.7491 156.569 21.7491 154.523 19.7035 152.478 17.6578 152.478 14.3411 154.523 12.2954 156.569 10.2498 159.886 10.2498 161.931 12.2954 163.977 14.3411 163.977 17.6578 161.931 19.7035ZM381.158 372.456C383.203 370.411 386.52 370.411 388.566 372.456 390.611 374.502 390.611 377.819 388.566 379.864 386.52 381.91 383.203 381.91 381.158 379.864 379.112 377.819 379.112 374.502 381.158 372.456ZM482.366 320.675C484.412 318.63 487.729 318.63 489.774 320.675 491.82 322.721 491.82 326.038 489.774 328.083 487.729 330.129 484.412 330.129 482.366 328.083 480.321 326.038 480.321 322.721 482.366 320.675ZM217.037 112.372C214.144 112.372 211.799 110.027 211.799 107.134 211.799 104.241 214.144 101.896 217.037 101.896 219.93 101.896 222.276 104.241 222.276 107.134 222.276 110.027 219.93 112.372 217.037 112.372ZM488.24 112.372C485.347 112.372 483.001 110.027 483.001 107.134 483.001 104.241 485.347 101.896 488.24 101.896 491.133 101.896 493.478 104.241 493.478 107.134 493.478 110.027 491.133 112.372 488.24 112.372ZM32.8039 275.875C35.6969 275.875 38.0421 278.22 38.0421 281.113 38.0421 284.006 35.6969 286.351 32.8039 286.351 29.9109 286.351 27.5656 284.006 27.5656 281.113 27.5656 278.22 29.9109 275.875 32.8039 275.875ZM14.0392 370.923C16.9322 370.923 19.2775 373.268 19.2775 376.161 19.2775 379.054 16.9322 381.399 14.0392 381.399 11.1462 381.399 8.80096 379.054 8.80097 376.161 8.80097 373.268 11.1462 370.923 14.0392 370.923ZM291.352 275.875C294.245 275.875 296.591 278.22 296.591 281.113 296.591 284.006 294.245 286.351 291.352 286.351 288.459 286.351 286.114 284.006 286.114 281.113 286.114 278.22 288.459 275.875 291.352 275.875ZM6.20048 152.411C9.0935 152.411 11.4387 150.066 11.4388 147.173 11.4388 144.28 9.0935 141.935 6.20048 141.935 3.30747 141.935.962219 144.28.962219 147.173.962219 150.066 3.30747 152.411 6.20048 152.411ZM264.749 152.411C267.642 152.411 269.987 150.066 269.987 147.173 269.987 144.28 267.642 141.935 264.749 141.935 261.856 141.935 259.511 144.28 259.511 147.173 259.511 150.066 261.856 152.411 264.749 152.411ZM243.641 235.836C240.748 235.836 238.403 238.181 238.403 241.074 238.403 243.967 240.748 246.312 243.641 246.312 246.534 246.312 248.879 243.967 248.879 241.074 248.879 238.181 246.534 235.836 243.641 235.836ZM502.189 235.836C499.296 235.836 496.95 238.181 496.95 241.074 496.95 243.967 499.296 246.312 502.189 246.312 505.082 246.312 507.427 243.967 507.427 241.074 507.427 238.181 505.082 235.836 502.189 235.836ZM118.905 101.501C118.905 104.394 121.25 106.739 124.143 106.739 127.036 106.739 129.381 104.394 129.381 101.501 129.381 98.6076 127.036 96.2623 124.143 96.2623 121.25 96.2623 118.905 98.6076 118.905 101.501ZM377.453 101.501C377.453 104.394 379.799 106.739 382.692 106.739 385.585 106.739 387.93 104.394 387.93 101.501 387.93 98.6076 385.585 96.2623 382.692 96.2623 379.799 96.2623 377.453 98.6076 377.453 101.501ZM130.936 286.748C130.936 283.855 128.591 281.51 125.698 281.51 122.805 281.51 120.459 283.855 120.459 286.748 120.459 289.641 122.805 291.986 125.698 291.986 128.591 291.986 130.936 289.641 130.936 286.748ZM389.484 286.748C389.484 283.855 387.139 281.51 384.246 281.51 381.353 281.51 379.008 283.855 379.008 286.748 379.008 289.641 381.353 291.986 384.246 291.986 387.139 291.986 389.484 289.641 389.484 286.748Z" fill="#FFAA5A"/><path fill-rule="evenodd" clip-rule="evenodd" d="M552.254 79.8201H541.793V74.9391H552.254V79.8201ZM614.527 34.6688H604.067V29.7877H614.527V34.6688ZM927.65 68.3883 935.047 60.9918 931.595 57.5404 924.199 64.9369 927.65 68.3883ZM810.802 79.8201H800.342V74.9391H810.802V79.8201ZM664.803 308.427 675.263 308.427 675.263 313.308 664.803 313.308 664.803 308.427ZM923.352 308.427 933.812 308.427 933.812 313.308 923.352 313.308 923.352 308.427ZM675.104 163.945 675.104 153.485 679.985 153.485 679.985 163.945 675.104 163.945ZM933.653 163.945 933.653 153.485 938.534 153.485 938.534 163.945 933.653 163.945ZM541.953 224.302 541.953 234.762 537.072 234.762 537.072 224.302 541.953 224.302ZM800.501 224.302 800.501 234.762 795.62 234.762 795.62 224.302 800.501 224.302ZM517.926 111.961 517.926 101.5 513.045 101.5 513.045 111.961 517.926 111.961ZM974.649 66.8417 967.253 59.4452 970.704 55.9938 978.101 63.3902 974.649 66.8417ZM777.401 111.961 777.401 101.5 772.52 101.5 772.52 111.961 777.401 111.961ZM699.13 276.287 699.13 286.747 704.011 286.747 704.011 276.287 699.13 276.287ZM703.443 373.108 703.443 383.568 708.324 383.568 708.324 373.108 703.443 373.108ZM756.789 15.1393 756.789 25.5995 761.67 25.5995 761.67 15.1393 756.789 15.1393ZM957.679 276.287 957.679 286.747 962.56 286.747 962.56 276.287 957.679 276.287ZM642.964 129.619 653.424 129.619 653.424 124.738 642.964 124.738 642.964 129.619ZM901.512 129.619 911.972 129.619 911.972 124.738 901.512 124.738 901.512 129.619ZM574.093 258.629 563.633 258.629 563.633 263.51 574.093 263.51 574.093 258.629ZM558.371 336.766 547.91 336.766 547.91 341.647 558.371 341.647 558.371 336.766ZM841.146 346.846 830.686 346.846 830.686 351.727 841.146 351.727 841.146 346.846ZM832.642 258.629 822.182 258.629 822.182 263.51 832.642 263.51 832.642 258.629Z" fill="#21C090"/><path fill-rule="evenodd" clip-rule="evenodd" d="M557.933 17.5802 572.137 17.5801 572.137 12.6991 553.052 12.6992V23.6285H541.249V35.924H529.929V54.2713H534.81V40.8051H546.13V28.5096H557.933V17.5802ZM879.624 28.3933 869.58 38.4372 866.129 34.9858 879.624 21.4904 887.352 29.2186 895.698 20.873 904.392 29.5673 912.396 21.563 925.37 34.5365 921.918 37.9879 912.396 28.4658 904.392 36.4701 895.698 27.7758 887.352 36.1215 879.624 28.3933ZM816.481 17.5802 830.686 17.5801 830.686 12.6991 811.6 12.6992V23.6285H799.798V35.924H788.478V54.2713H793.359V40.8051H804.679V28.5096H816.481V17.5802ZM659.124 370.667 644.92 370.667 644.92 375.548 664.005 375.548 664.005 364.619 675.808 364.619 675.808 352.323 687.127 352.323 687.127 333.976 682.246 333.976 682.246 347.442 670.927 347.442 670.927 359.738 659.124 359.738 659.124 370.667ZM711.105 24.1342 721.15 34.1782 724.601 30.7268 711.105 17.2314 703.377 24.9596 695.032 16.614 686.337 25.3082 678.333 17.304 665.36 30.2775 668.811 33.7289 678.333 24.2068 686.337 32.2111 695.032 23.5168 703.377 31.8624 711.105 24.1342ZM765.365 375.37 755.321 365.326 751.87 368.778 765.365 382.273 773.093 374.545 781.439 382.891 790.133 374.196 798.137 382.201 811.111 369.227 807.659 365.776 798.137 375.298 790.133 367.294 781.439 375.988 773.093 367.642 765.365 375.37ZM917.673 370.667 903.468 370.667 903.468 375.548 922.554 375.548 922.554 364.619 934.356 364.619 934.356 352.323 945.676 352.323 945.676 333.976 940.795 333.976 940.795 347.442 929.475 347.442 929.475 359.738 917.673 359.738 917.673 370.667ZM583.833 369.088 593.877 379.132 597.328 375.68 583.833 362.185 576.105 369.913 567.759 361.568 559.065 370.262 551.061 362.258 538.087 375.231 541.539 378.683 551.061 369.16 559.065 377.165 567.759 368.47 576.105 376.816 583.833 369.088ZM665.319 96.6862 665.319 110.891 670.2 110.891 670.2 91.8052 659.271 91.8052 659.271 80.0027 646.976 80.0027 646.976 68.683 628.628 68.683 628.628 73.564 642.094 73.564 642.094 84.8837 654.39 84.8837 654.39 96.6862 665.319 96.6862ZM923.867 96.6862 923.867 110.891 928.749 110.891 928.748 91.8052 917.819 91.8052 917.819 80.0027 905.524 80.0027 905.524 68.683 887.176 68.683 887.176 73.564 900.643 73.564 900.643 84.8837 912.938 84.8837 912.938 96.6862 923.867 96.6862ZM551.738 291.561 551.737 277.357 546.856 277.357 546.857 296.442 557.786 296.442 557.786 308.245 570.081 308.245 570.081 319.564 588.429 319.564 588.429 314.683 574.962 314.683 574.962 303.364 562.667 303.364 562.667 291.561 551.738 291.561ZM810.286 291.561 810.286 277.357 805.405 277.357 805.405 296.442 816.334 296.442 816.334 308.245 828.63 308.245 828.63 319.564 846.977 319.564 846.977 314.683 833.511 314.683 833.511 303.364 821.215 303.364 821.215 291.561 810.286 291.561ZM537.592 168.367 547.636 158.323 551.088 161.775 537.592 175.27 529.864 167.542 521.518 175.887 512.824 167.193 504.82 175.197 491.846 162.224 495.298 158.773 504.82 168.295 512.824 160.29 521.518 168.985 529.864 160.639 537.592 168.367ZM795.921 146.732 795.921 132.528 800.802 132.528 800.802 151.613 789.872 151.613 789.872 163.416 777.577 163.416 777.577 174.735 759.23 174.735 759.23 169.854 772.696 169.854 772.696 158.534 784.991 158.534 784.991 146.732 795.921 146.732ZM679.685 241.515 679.685 255.72 674.804 255.72 674.804 236.634 685.733 236.634 685.733 224.832 698.029 224.832 698.029 213.512 716.376 213.512 716.376 218.393 702.91 218.393 702.91 229.713 690.614 229.713 690.614 241.515 679.685 241.515ZM938.534 229.949 938.534 244.154 933.653 244.154 933.653 225.068 944.582 225.068 944.582 213.266 956.878 213.266 956.878 201.946 975.225 201.946 975.225 206.827 961.759 206.827 961.759 218.147 949.463 218.147 949.463 229.949 938.534 229.949Z" fill="#009FFF"/><path fill-rule="evenodd" clip-rule="evenodd" d="M582.629 56.7122C578.182 56.7122 574.577 60.3172 574.577 64.7642H569.696C569.696 57.6215 575.487 51.8312 582.629 51.8312 589.772 51.8312 595.562 57.6215 595.562 64.7642H590.681C590.681 60.3172 587.076 56.7122 582.629 56.7122ZM841.178 56.7122C836.731 56.7122 833.126 60.3172 833.126 64.7642H828.245C828.245 57.6215 834.035 51.8312 841.178 51.8312 848.321 51.8312 854.111 57.6215 854.111 64.7642H849.23C849.23 60.3172 845.625 56.7122 841.178 56.7122ZM634.428 331.536C638.875 331.536 642.48 327.931 642.48 323.484L647.361 323.484C647.361 330.627 641.57 336.417 634.428 336.417 627.285 336.417 621.495 330.627 621.495 323.484L626.376 323.484C626.376 327.931 629.981 331.536 634.428 331.536ZM700.899 69.2677C697.754 66.1232 692.656 66.1232 689.512 69.2677L686.06 65.8163C691.111 60.7656 699.3 60.7656 704.35 65.8163 709.401 70.867 709.401 79.0557 704.35 84.1064L700.899 80.655C704.043 77.5105 704.043 72.4122 700.899 69.2677ZM775.572 330.237C778.717 333.381 783.815 333.381 786.959 330.237L790.411 333.688C785.36 338.739 777.171 338.739 772.121 333.688 767.07 328.638 767.07 320.449 772.121 315.398L775.572 318.85C772.428 321.994 772.428 327.092 775.572 330.237ZM892.976 331.536C897.423 331.536 901.028 327.931 901.028 323.484L905.909 323.484C905.909 330.627 900.119 336.417 892.976 336.417 885.833 336.417 880.043 330.627 880.043 323.484L884.924 323.484C884.924 327.931 888.529 331.536 892.976 331.536ZM713.935 163.978C713.935 159.531 710.33 155.926 705.883 155.926L705.883 151.045C713.026 151.045 718.816 156.835 718.816 163.978 718.816 171.121 713.026 176.911 705.883 176.911L705.883 172.03C710.33 172.03 713.935 168.425 713.935 163.978ZM978.816 157.665C978.816 162.112 982.421 165.717 986.868 165.717L986.868 170.598C979.725 170.598 973.935 164.808 973.935 157.665 973.935 150.523 979.725 144.732 986.868 144.732L986.868 149.613C982.421 149.613 978.816 153.218 978.816 157.665ZM761.67 224.27C761.67 228.717 765.275 232.322 769.722 232.322L769.722 237.203C762.58 237.203 756.789 231.413 756.789 224.27 756.789 217.128 762.58 211.337 769.722 211.337L769.722 216.218C765.275 216.218 761.67 219.823 761.67 224.27ZM592.785 147.173C592.785 142.726 589.18 139.121 584.733 139.121L584.733 134.24C591.876 134.24 597.666 140.03 597.666 147.173 597.666 154.315 591.876 160.106 584.733 160.106L584.733 155.225C589.18 155.225 592.785 151.62 592.785 147.173ZM851.334 147.173C851.334 142.726 847.729 139.121 843.282 139.121L843.282 134.24C850.425 134.24 856.215 140.03 856.215 147.173 856.215 154.315 850.425 160.106 843.282 160.106L843.282 155.225C847.729 155.225 851.334 151.62 851.334 147.173ZM624.272 241.075C624.272 245.522 627.877 249.127 632.324 249.127L632.324 254.008C625.181 254.008 619.391 248.217 619.391 241.075 619.391 233.932 625.181 228.142 632.324 228.142L632.324 233.023C627.877 233.023 624.272 236.628 624.272 241.075ZM882.82 241.075C882.82 245.522 886.425 249.127 890.872 249.127L890.872 254.008C883.73 254.008 877.939 248.217 877.939 241.075 877.939 233.932 883.73 228.142 890.872 228.142L890.872 233.023C886.425 233.023 882.82 236.628 882.82 241.075ZM985.41 26.4491C982.266 23.3046 977.167 23.3046 974.023 26.4491L970.572 22.9977C975.622 17.947 983.811 17.947 988.862 22.9977 993.912 28.0484 993.912 36.2371 988.862 41.2878L985.41 37.8363C988.555 34.6919 988.555 29.5936 985.41 26.4491ZM987.522 364.488C989.746 368.339 994.67 369.659 998.522 367.435L1000.96 371.662C994.776 375.234 986.867 373.114 983.295 366.928 979.724 360.743 981.843 352.833 988.029 349.262L990.47 353.489C986.618 355.712 985.299 360.637 987.522 364.488ZM740.305 91.0081C740.305 86.5611 743.91 82.9561 748.357 82.9561L748.357 78.0751C741.214 78.0751 735.424 83.8654 735.424 91.0081 735.424 98.1508 741.214 103.941 748.357 103.941L748.357 99.0601C743.91 99.0601 740.305 95.4551 740.305 91.0081ZM735.301 297.239C735.301 301.686 731.696 305.291 727.249 305.291L727.249 310.172C734.391 310.172 740.182 304.382 740.182 297.239 740.182 290.096 734.391 284.306 727.249 284.306L727.249 289.187C731.696 289.187 735.301 292.792 735.301 297.239ZM993.849 297.239C993.849 301.686 990.244 305.291 985.797 305.291L985.797 310.172C992.94 310.172 998.73 304.382 998.73 297.239 998.73 290.096 992.94 284.306 985.797 284.306L985.797 289.187C990.244 289.187 993.849 292.792 993.849 297.239ZM648.194 184.946C652.641 184.946 656.246 188.551 656.246 192.998L661.127 192.998C661.127 185.855 655.337 180.065 648.194 180.065 641.051 180.065 635.261 185.855 635.261 192.998L640.142 192.998C640.142 188.551 643.747 184.946 648.194 184.946ZM906.743 184.946C911.189 184.946 914.794 188.551 914.794 192.998L919.676 192.998C919.676 185.855 913.885 180.065 906.743 180.065 899.6 180.065 893.809 185.855 893.809 192.998L898.691 192.998C898.691 188.551 902.296 184.946 906.743 184.946ZM568.863 203.303C564.416 203.303 560.811 199.698 560.811 195.251L555.93 195.251C555.93 202.393 561.72 208.184 568.863 208.184 576.006 208.184 581.796 202.393 581.796 195.251L576.915 195.251C576.915 199.698 573.31 203.303 568.863 203.303ZM827.412 203.303C822.965 203.303 819.36 199.698 819.36 195.251L814.479 195.251C814.479 202.393 820.269 208.184 827.412 208.184 834.554 208.184 840.345 202.393 840.345 195.251L835.464 195.251C835.464 199.698 831.859 203.303 827.412 203.303Z" fill="#21C090"/><path d="M946.94 16.6651C948.985 18.7108 952.302 18.7108 954.348 16.6651 956.393 14.6195 956.393 11.3028 954.348 9.25711 952.302 7.21144 948.985 7.21144 946.94 9.25711 944.894 11.3028 944.894 14.6195 946.94 16.6651ZM759.229 54.2789C759.229 57.1719 756.884 59.5172 753.991 59.5172 751.098 59.5172 748.753 57.1719 748.753 54.2789 748.753 51.3859 751.098 49.0406 753.991 49.0406 756.884 49.0406 759.229 51.3859 759.229 54.2789ZM716.376 333.968C716.376 331.075 718.722 328.73 721.615 328.73 724.508 328.73 726.853 331.075 726.853 333.968 726.853 336.861 724.508 339.207 721.615 339.207 718.722 339.207 716.376 336.861 716.376 333.968ZM645.54 19.7035C643.494 21.7491 640.177 21.7491 638.132 19.7035 636.086 17.6578 636.086 14.3411 638.132 12.2954 640.177 10.2498 643.494 10.2498 645.54 12.2954 647.585 14.3411 647.585 17.6578 645.54 19.7035ZM864.765 372.456C866.811 370.411 870.128 370.411 872.173 372.456 874.219 374.502 874.219 377.819 872.173 379.864 870.128 381.91 866.811 381.91 864.765 379.864 862.72 377.819 862.72 374.502 864.765 372.456ZM965.974 320.675C968.02 318.63 971.336 318.63 973.382 320.675 975.428 322.721 975.428 326.038 973.382 328.083 971.336 330.129 968.02 330.129 965.974 328.083 963.928 326.038 963.928 322.721 965.974 320.675ZM700.645 112.372C697.752 112.372 695.407 110.027 695.407 107.134 695.407 104.241 697.752 101.896 700.645 101.896 703.538 101.896 705.884 104.241 705.884 107.134 705.884 110.027 703.538 112.372 700.645 112.372ZM971.848 112.372C968.955 112.372 966.609 110.027 966.609 107.134 966.609 104.241 968.955 101.896 971.848 101.896 974.741 101.896 977.086 104.241 977.086 107.134 977.086 110.027 974.741 112.372 971.848 112.372ZM516.412 275.875C519.305 275.875 521.65 278.22 521.65 281.113 521.65 284.006 519.305 286.351 516.412 286.351 513.519 286.351 511.173 284.006 511.173 281.113 511.173 278.22 513.519 275.875 516.412 275.875ZM774.96 275.875C777.853 275.875 780.198 278.22 780.198 281.113 780.198 284.006 777.853 286.351 774.96 286.351 772.067 286.351 769.722 284.006 769.722 281.113 769.722 278.22 772.067 275.875 774.96 275.875ZM748.357 152.411C751.25 152.411 753.595 150.066 753.595 147.173 753.595 144.28 751.25 141.935 748.357 141.935 745.464 141.935 743.119 144.28 743.119 147.173 743.119 150.066 745.464 152.411 748.357 152.411ZM727.249 235.836C724.356 235.836 722.01 238.181 722.01 241.074 722.01 243.967 724.356 246.312 727.249 246.312 730.142 246.312 732.487 243.967 732.487 241.074 732.487 238.181 730.142 235.836 727.249 235.836ZM985.797 235.836C982.904 235.836 980.558 238.181 980.558 241.074 980.558 243.967 982.904 246.312 985.797 246.312 988.69 246.312 991.035 243.967 991.035 241.074 991.035 238.181 988.69 235.836 985.797 235.836ZM602.513 101.501C602.513 104.394 604.858 106.739 607.751 106.739 610.644 106.739 612.99 104.394 612.99 101.501 612.99 98.6076 610.644 96.2623 607.751 96.2623 604.858 96.2623 602.513 98.6076 602.513 101.501ZM861.061 101.501C861.061 104.394 863.407 106.739 866.3 106.739 869.193 106.739 871.538 104.394 871.538 101.501 871.538 98.6076 869.193 96.2623 866.3 96.2623 863.407 96.2623 861.061 98.6076 861.061 101.501ZM614.544 286.748C614.544 283.855 612.198 281.51 609.305 281.51 606.412 281.51 604.067 283.855 604.067 286.748 604.067 289.641 606.412 291.986 609.305 291.986 612.198 291.986 614.544 289.641 614.544 286.748ZM873.092 286.748C873.092 283.855 870.747 281.51 867.854 281.51 864.961 281.51 862.616 283.855 862.616 286.748 862.616 289.641 864.961 291.986 867.854 291.986 870.747 291.986 873.092 289.641 873.092 286.748Z" fill="#FFAA5A"/></g></svg>